<?xml version="1.0" ?><svg viewBox="0 0 64 64" xmlns="http://www.w3.org/2000/svg"><defs><style>.cls-1{fill:#666e78;}.cls-2{fill:#c1c8d1;}.cls-3{fill:#f9d18b;}.cls-4{fill:#8892a0;}.cls-5{fill:#a67c52;}.cls-6{fill:none;stroke:#000;stroke-linejoin:round;stroke-width:2px;}</style></defs><title/><g data-name="Layer 22" id="Layer_22"><rect class="cls-1" height="30" width="36" x="14" y="22"/><rect class="cls-2" height="8" width="6" x="36" y="44"/><rect class="cls-2" height="4" width="10" x="34" y="40"/><rect class="cls-2" height="8" width="6" x="22" y="44"/><rect class="cls-2" height="4" width="10" x="20" y="40"/><rect class="cls-2" height="22" width="6" x="8" y="26"/><rect class="cls-2" height="22" width="6" x="50" y="26"/><rect class="cls-2" height="4" width="10" x="6" y="22"/><rect class="cls-2" height="4" width="10" x="6" y="48"/><rect class="cls-2" height="4" width="10" x="48" y="22"/><rect class="cls-2" height="4" width="10" x="48" y="48"/><polygon class="cls-1" points="4 18 32 2 60 18 4 18"/><circle class="cls-3" cx="32" cy="11" r="3"/><rect class="cls-4" height="4" width="60" x="2" y="18"/><rect class="cls-4" height="4" width="56" x="4" y="52"/><rect class="cls-4" height="6" width="60" x="2" y="56"/><path class="cls-5" d="M27.707,32.707h0A4.414,4.414,0,0,1,29,35.828v.758A3.415,3.415,0,0,1,28,39h0a3.415,3.415,0,0,1-2.414,1H24.414A3.415,3.415,0,0,1,22,39h0a3.415,3.415,0,0,1-1-2.414v-.758a4.414,4.414,0,0,1,1.293-3.121h0A2.414,2.414,0,0,0,23,31h0a2.414,2.414,0,0,0-.707-1.707L21,28h8l-1.293,1.293A2.414,2.414,0,0,0,27,31h0A2.414,2.414,0,0,0,27.707,32.707Z"/><path class="cls-5" d="M41.707,32.707h0A4.414,4.414,0,0,1,43,35.828v.758A3.415,3.415,0,0,1,42,39h0a3.415,3.415,0,0,1-2.414,1H38.414A3.415,3.415,0,0,1,36,39h0a3.415,3.415,0,0,1-1-2.414v-.758a4.414,4.414,0,0,1,1.293-3.121h0A2.414,2.414,0,0,0,37,31h0a2.414,2.414,0,0,0-.707-1.707L35,28h8l-1.293,1.293A2.414,2.414,0,0,0,41,31h0A2.414,2.414,0,0,0,41.707,32.707Z"/><rect class="cls-6" height="6" width="60" x="2" y="56"/><polyline class="cls-6" points="4 56 4 52 60 52 60 56"/><rect class="cls-6" height="4" width="60" x="2" y="18"/><polyline class="cls-6" points="4 18 32 2 60 18"/><circle class="cls-6" cx="32" cy="11" r="3"/><polyline class="cls-6" points="6 52 6 48 16 48 16 52"/><polyline class="cls-6" points="6 22 6 26 16 26 16 22"/><line class="cls-6" x1="8" x2="8" y1="26" y2="48"/><line class="cls-6" x1="14" x2="14" y1="26" y2="48"/><polyline class="cls-6" points="48 52 48 48 58 48 58 52"/><polyline class="cls-6" points="48 22 48 26 58 26 58 22"/><line class="cls-6" x1="50" x2="50" y1="26" y2="48"/><line class="cls-6" x1="56" x2="56" y1="26" y2="48"/><path class="cls-6" d="M27.707,32.707h0A4.414,4.414,0,0,1,29,35.828v.758A3.415,3.415,0,0,1,28,39h0a3.415,3.415,0,0,1-2.414,1H24.414A3.415,3.415,0,0,1,22,39h0a3.415,3.415,0,0,1-1-2.414v-.758a4.414,4.414,0,0,1,1.293-3.121h0A2.414,2.414,0,0,0,23,31h0a2.414,2.414,0,0,0-.707-1.707L21,28h8l-1.293,1.293A2.414,2.414,0,0,0,27,31h0A2.414,2.414,0,0,0,27.707,32.707Z"/><path class="cls-6" d="M41.707,32.707h0A4.414,4.414,0,0,1,43,35.828v.758A3.415,3.415,0,0,1,42,39h0a3.415,3.415,0,0,1-2.414,1H38.414A3.415,3.415,0,0,1,36,39h0a3.415,3.415,0,0,1-1-2.414v-.758a4.414,4.414,0,0,1,1.293-3.121h0A2.414,2.414,0,0,0,37,31h0a2.414,2.414,0,0,0-.707-1.707L35,28h8l-1.293,1.293A2.414,2.414,0,0,0,41,31h0A2.414,2.414,0,0,0,41.707,32.707Z"/><rect class="cls-6" height="4" width="10" x="20" y="40"/><line class="cls-6" x1="22" x2="22" y1="44" y2="52"/><line class="cls-6" x1="28" x2="28" y1="44" y2="52"/><rect class="cls-6" height="4" width="10" x="34" y="40"/><line class="cls-6" x1="36" x2="36" y1="44" y2="52"/><line class="cls-6" x1="42" x2="42" y1="44" y2="52"/><line class="cls-6" x1="29" x2="21" y1="36" y2="36"/><line class="cls-6" x1="43" x2="35" y1="36" y2="36"/></g></svg>